<svg width="368" height="374" viewBox="0 0 368 374" fill="none" xmlns="http://www.w3.org/2000/svg">
<path d="M325.344 321.959C317.787 329.92 310.637 335.053 304.988 339.109C238.585 386.788 160.012 372.89 143.313 369.496C118.654 364.484 70.9881 354.796 36.5264 314.242C-15.6106 252.888 -7.49239 156.226 32.9492 92.4175C40.3479 80.746 79.4213 15.9652 158.842 5.57734C206.905 -0.709873 262.931 11.9701 303.505 45.9867C388.67 117.387 382.608 261.631 325.344 321.959Z" fill="#EEF9FF"/>
<path d="M251.574 361.499C250.934 361.412 250.362 361.074 249.977 360.556C244.373 352.997 203.619 293.845 257.857 239.775C309.345 188.446 332.684 177.906 335.788 147.748C336.152 144.226 340.909 143.38 342.474 146.555C354.174 170.284 372.402 225.655 312.08 261.999C245.539 302.089 250.992 346.036 254.21 358.525C254.636 360.176 253.262 361.728 251.574 361.499Z" fill="#B1E2FF"/>
<path d="M259.827 362.623C258.313 362.418 257.113 361.249 256.88 359.738C255.291 349.452 251.391 311.017 279.687 300.824C310.837 289.604 335.986 318.634 358.884 295.912C360.09 294.717 362.115 295.759 361.828 297.432C359.788 309.302 350.712 336.795 310.323 342.327C267.095 348.248 262.229 353.211 263.102 359.367C263.371 361.262 261.725 362.881 259.827 362.623Z" fill="#B1E2FF"/>
<path opacity="0.47" d="M334.281 178.496C333.754 180.734 333.051 182.834 332.214 184.917C331.392 187 330.444 189.029 329.411 191.015C327.366 195.001 324.911 198.771 322.224 202.363C316.814 209.529 310.269 215.824 303.054 221.163C299.455 223.817 295.608 226.256 291.806 228.46C288.103 230.609 284.54 233.014 281.129 235.617C274.3 240.824 268.108 246.865 262.639 253.489C251.746 266.747 244.013 282.749 241.468 299.785C240.169 308.283 240.153 316.985 241.324 325.555C242.48 334.135 244.924 342.537 248.147 350.638C248.321 351.069 248.113 351.561 247.681 351.736C247.266 351.903 246.794 351.712 246.603 351.314C242.835 343.309 240.018 334.798 238.459 326.009C237.662 321.62 237.191 317.161 237.056 312.686C236.95 308.212 237.138 303.718 237.701 299.266C238.784 290.352 241.297 281.62 244.916 273.4C248.545 265.176 253.34 257.495 258.94 250.489C264.539 243.472 271.035 237.194 278.137 231.71C281.696 228.974 285.416 226.442 289.3 224.169C293.102 221.985 296.711 219.767 300.208 217.243C307.187 212.255 313.635 206.497 319.182 199.927C321.991 196.67 324.533 193.184 326.857 189.551C329.134 185.91 331.263 182.068 332.796 178.096L332.816 178.044C332.968 177.647 333.414 177.449 333.81 177.603C334.173 177.742 334.37 178.128 334.281 178.496Z" fill="white"/>
<path opacity="0.47" d="M258.031 355.647C258.164 355.274 258.122 354.928 258.11 354.573L258.077 353.513L258.051 351.393C258.054 349.981 258.085 348.568 258.146 347.157C258.272 344.335 258.512 341.516 258.89 338.711C259.659 333.111 260.927 327.528 263.186 322.267C265.421 317.045 268.803 312.053 273.714 308.791C276.159 307.19 278.92 306.051 281.779 305.471C284.635 304.868 287.572 304.779 290.443 305.031C301.695 306.338 312.726 308.496 323.785 310.25C329.293 311.071 334.879 311.806 340.288 311.066C341.632 310.868 342.956 310.576 344.242 310.162C345.515 309.717 346.766 309.196 347.934 308.511C350.286 307.167 352.353 305.331 354.202 303.292L354.207 303.286C354.462 303.005 354.896 302.984 355.176 303.239C355.453 303.49 355.477 303.916 355.234 304.198C353.361 306.355 351.221 308.349 348.721 309.852C347.48 310.616 346.14 311.21 344.774 311.718C343.395 312.195 341.978 312.541 340.548 312.781C334.789 313.625 329.078 312.908 323.507 312.143C317.92 311.347 312.402 310.31 306.865 309.414C301.345 308.515 295.761 307.645 290.264 307C287.55 306.737 284.807 306.801 282.162 307.335C279.512 307.847 276.979 308.872 274.712 310.323C270.143 313.235 266.829 317.868 264.577 322.882C262.3 327.922 260.947 333.378 260.088 338.884C259.665 341.642 259.377 344.423 259.202 347.213C259.115 348.608 259.059 350.005 259.031 351.402L259.016 353.498L259.03 354.545C259.039 354.891 259.023 355.248 259.194 355.576C259.356 355.889 259.234 356.273 258.922 356.435C258.609 356.597 258.225 356.475 258.063 356.163C257.979 356 257.973 355.818 258.029 355.658L258.031 355.647Z" fill="white"/>
<path d="M199.236 4.24698C182.282 4.11341 165.181 6.80354 150.051 13.0854C114.831 27.7088 84.9394 66.4031 96.6375 105.927C100.438 118.766 98.4408 132.931 111.223 138.51C118.138 141.529 136.972 143.327 144.134 140.947C163.166 134.623 175.676 117.317 165.325 98.125C162.01 91.9794 157.719 86.3641 154.857 79.9954C151.995 73.6267 150.69 66.0652 153.608 59.7206C159.337 47.2664 178.367 43.3073 190.707 43.6813C205.272 44.1221 218.471 51.3309 226.309 63.6997C236.078 79.1138 238.553 97.8619 237.123 115.754C235.594 134.899 227.526 149.519 215.437 164.206C205.028 176.851 193.566 188.987 186.649 203.835C180.298 217.466 178.223 232.569 177.936 247.481C177.88 250.371 163.516 277.609 163.577 285.931C163.587 287.106 179.869 291.001 181.043 291.014C187.174 291.082 204.537 291.277 210.928 291.348C212.243 291.363 213.325 290.312 213.34 288.996C213.795 248.512 226.239 209.914 257.74 182.724C269.202 172.83 281.547 164.773 290.46 152.286C303.163 134.487 309.43 116.971 307.622 95.0048C305.969 74.9424 299.369 54.8706 286.301 39.3042C272.255 22.5743 251.698 12.1264 230.333 7.61832C220.37 5.51724 209.832 4.32979 199.236 4.24698Z" fill="url(#paint0_linear)"/>
<path d="M230.501 336.732C230.501 355.349 220.189 371.818 201.586 371.818C197.567 371.818 183.898 371.856 180.325 370.564C167.356 365.876 167.31 355.905 167.31 341.311C167.31 322.693 173.591 304.385 192.195 304.385C210.798 304.385 230.501 318.115 230.501 336.732Z" fill="url(#paint1_linear)"/>
<path d="M183.127 0.0047287C166.172 -0.128843 149.071 2.56129 133.941 8.84315C98.7211 23.4666 68.8298 62.1609 80.5279 101.685C84.328 114.524 93.1137 130.686 105.896 136.265C112.811 139.284 120.863 139.083 128.024 136.704C147.057 130.381 159.566 113.074 149.215 93.8828C145.901 87.7372 141.609 82.1218 138.748 75.7531C135.886 69.3831 134.58 61.8229 137.498 55.4783C143.227 43.0241 162.257 39.065 174.597 39.439C189.163 39.8798 202.361 47.0887 210.199 59.4574C219.968 74.8716 222.443 93.6196 221.014 111.512C219.484 130.656 211.416 145.277 199.327 159.963C188.918 172.608 177.457 184.745 170.54 199.593C164.189 213.224 162.113 228.326 161.826 243.238C161.77 246.129 162.743 276.311 162.805 284.632C162.814 285.808 163.759 286.757 164.934 286.771C171.064 286.839 188.427 287.034 194.818 287.105C196.133 287.119 197.215 286.068 197.23 284.752C197.685 244.268 210.13 205.67 241.631 178.48C253.093 168.587 265.437 160.53 274.35 148.042C287.054 130.244 293.321 112.727 291.512 90.7612C289.859 70.6988 283.259 50.627 270.191 35.0606C256.145 18.3307 235.588 7.88278 214.223 3.37474C204.261 1.27499 193.722 0.087543 183.127 0.0047287Z" fill="url(#paint2_linear)"/>
<path d="M184.885 370.776C203.488 370.776 218.57 355.685 218.57 337.068C218.57 318.452 203.488 303.36 184.885 303.36C166.281 303.36 151.2 318.452 151.2 337.068C151.2 355.685 166.281 370.776 184.885 370.776Z" fill="url(#paint3_linear)"/>
<path opacity="0.63" d="M91.6775 97.8124C91.4786 97.8124 91.2997 97.6749 91.2557 97.4732C88.8944 86.8075 88.5487 70.1044 100.303 51.1025C111.775 32.5574 127.869 20.1473 148.135 14.2194C169.8 7.88276 195.52 9.23984 224.587 18.2519C224.815 18.3227 224.943 18.5645 224.872 18.7929C224.802 19.0213 224.557 19.1495 224.332 19.0787C168.492 1.76385 124.706 13.2991 101.038 51.5593C89.4363 70.3127 89.774 86.7781 92.1006 97.2875C92.1526 97.5212 92.0045 97.751 91.7722 97.8031C91.7402 97.8098 91.7082 97.8124 91.6775 97.8124Z" fill="white"/>
<path opacity="0.63" d="M98.7638 114.974C98.6304 114.974 98.4995 114.912 98.4141 114.796C98.3113 114.656 95.8847 111.299 93.6262 105.389C93.5408 105.165 93.6529 104.916 93.8758 104.83C94.0974 104.745 94.3483 104.856 94.4338 105.08C96.6469 110.874 99.0869 114.252 99.1109 114.286C99.251 114.478 99.2097 114.749 99.0161 114.889C98.9414 114.947 98.8519 114.974 98.7638 114.974Z" fill="white"/>
<path opacity="0.63" d="M196.156 315.22C196.09 315.22 196.023 315.205 195.961 315.173C192.509 313.421 188.782 312.533 184.885 312.533C184.646 312.533 184.452 312.339 184.452 312.1C184.452 311.861 184.646 311.667 184.885 311.667C188.92 311.667 192.779 312.587 196.352 314.401C196.564 314.509 196.649 314.77 196.541 314.982C196.465 315.133 196.313 315.22 196.156 315.22Z" fill="white"/>
<path opacity="0.63" d="M170.934 358.203C170.851 358.203 170.767 358.179 170.692 358.129C163.684 353.391 159.501 345.518 159.501 337.067C159.501 327.698 164.629 319.119 172.882 314.679C173.092 314.566 173.355 314.644 173.468 314.855C173.582 315.066 173.503 315.328 173.292 315.442C165.318 319.731 160.365 328.016 160.365 337.067C160.365 345.23 164.406 352.837 171.175 357.413C171.373 357.546 171.425 357.815 171.291 358.014C171.21 358.137 171.072 358.203 170.934 358.203Z" fill="white"/>
<g opacity="0.3">
<path opacity="0.3" d="M72.8302 63.0624C72.4765 63.5006 71.8345 63.5673 71.3967 63.2134C70.5464 62.5241 69.6534 61.863 68.7431 61.2459C68.2826 60.9333 68.1585 60.3109 68.4601 59.846C68.4641 59.8407 68.4668 59.8354 68.4708 59.83C68.7858 59.3638 69.4198 59.2423 69.887 59.5575C70.8454 60.2067 71.7851 60.9039 72.6794 61.6292C73.0892 61.9605 73.1746 62.5442 72.893 62.977C72.8743 63.0063 72.8543 63.0344 72.8302 63.0624ZM64.106 58.5464C63.1209 58.0589 62.1052 57.6101 61.0867 57.2107C60.5635 57.005 60.3045 56.4132 60.5101 55.8883C60.7183 55.362 61.307 55.1056 61.8315 55.3113C62.9034 55.732 63.9725 56.2049 65.0097 56.7165C65.5142 56.9662 65.7211 57.578 65.4728 58.0829C65.4542 58.119 65.4341 58.155 65.4128 58.1884C65.1338 58.6158 64.5745 58.7788 64.106 58.5464ZM55.9704 55.6051C54.9039 55.3514 53.8148 55.139 52.7296 54.9774C52.173 54.8945 51.7885 54.3749 51.8713 53.818C51.9554 53.261 52.4733 52.8763 53.0299 52.9591C54.1725 53.1301 55.3204 53.3518 56.443 53.6203C56.9902 53.7512 57.3279 54.3015 57.1985 54.8491C57.1704 54.9653 57.1237 55.0735 57.0623 55.1684C56.8341 55.521 56.4016 55.708 55.9704 55.6051ZM47.3824 54.5593C46.2852 54.5499 45.1746 54.5873 44.0814 54.6728C43.5195 54.7156 43.0296 54.2961 42.9869 53.7338C42.9442 53.1715 43.3647 52.6826 43.9253 52.6385C45.0759 52.5504 46.2451 52.5103 47.3997 52.5196C47.963 52.525 48.4155 52.9858 48.4102 53.5481C48.4088 53.7498 48.3488 53.9368 48.246 54.0944C48.0631 54.3763 47.7441 54.5619 47.3824 54.5593ZM38.7743 55.4529C37.7051 55.6866 36.6306 55.9698 35.5801 56.2944C35.0422 56.46 34.4709 56.1595 34.3054 55.6212C34.1386 55.0829 34.4402 54.5112 34.9781 54.3456C36.082 54.0036 37.2139 53.7058 38.3392 53.46C38.8891 53.3398 39.4324 53.6884 39.5525 54.2387C39.6125 54.5165 39.5552 54.7917 39.411 55.0121C39.2708 55.2298 39.0479 55.3941 38.7743 55.4529ZM30.5787 58.2312C29.5856 58.6973 28.6005 59.2102 27.6515 59.7592C27.1643 60.0411 26.5409 59.8728 26.2593 59.3852C25.9776 58.8977 26.1445 58.2739 26.633 57.9921C27.6328 57.415 28.6699 56.8741 29.7151 56.3839C30.2249 56.1448 30.8323 56.3652 31.0712 56.8754C31.226 57.2067 31.1873 57.5793 31.0018 57.8652C30.9004 58.0188 30.7575 58.147 30.5787 58.2312ZM7.60419 88.3368C7.04758 88.2527 6.6645 87.7331 6.74859 87.1761C6.92078 86.0354 7.14502 84.8854 7.41599 83.7607C7.54813 83.2131 8.09807 82.8751 8.64533 83.0073C9.1926 83.1382 9.52897 83.6899 9.39816 84.2375C9.14188 85.3061 8.92831 86.3974 8.76547 87.4807C8.74277 87.6289 8.68938 87.7652 8.6133 87.884C8.40107 88.2086 8.01264 88.3983 7.60419 88.3368ZM23.2079 62.7552C22.3443 63.4298 21.4994 64.1497 20.6959 64.8964C20.2834 65.2797 19.6387 65.2557 19.2556 64.8429C18.8725 64.4302 18.8979 63.7864 19.309 63.4017C20.1539 62.6163 21.0442 61.8576 21.9546 61.147C22.399 60.8011 23.0384 60.8799 23.3855 61.3247C23.6604 61.6773 23.6671 62.1528 23.4362 62.5081C23.3761 62.5989 23.2987 62.6831 23.2079 62.7552ZM9.69048 79.6948C9.16724 79.4877 8.90962 78.896 9.11652 78.3711C9.53964 77.2972 10.0148 76.2286 10.5274 75.1921C10.7757 74.6858 11.3897 74.4815 11.8942 74.7313C12.3988 74.981 12.6043 75.5941 12.3547 76.099C11.8675 77.0834 11.415 78.0999 11.0133 79.1204C10.9879 79.1859 10.9559 79.246 10.9185 79.3021C10.6595 79.7015 10.1483 79.8764 9.69048 79.6948ZM17.0318 68.8127C16.3404 69.6635 15.677 70.5545 15.0604 71.4628C14.744 71.9289 14.11 72.0491 13.6441 71.7326C13.185 71.42 13.0608 70.7976 13.3625 70.3341C13.3665 70.3274 13.3705 70.3221 13.3745 70.3167C14.0246 69.3603 14.7227 68.4213 15.4488 67.5264C15.8038 67.0896 16.4459 67.0228 16.8837 67.3781C17.2921 67.7094 17.3762 68.2931 17.0959 68.7245C17.0772 68.7539 17.0545 68.7833 17.0318 68.8127Z" fill="#B1E2FF"/>
<path opacity="0.3" d="M8.18881 95.0341C8.29826 94.8658 8.35966 94.6628 8.35299 94.4478C8.33697 93.9215 8.33029 93.3872 8.33563 92.8583C8.34097 92.2946 7.88848 91.8338 7.32653 91.8284C6.76325 91.8231 6.30274 92.2759 6.2974 92.8396C6.29206 93.3965 6.29874 93.9589 6.31609 94.5119C6.33344 95.0742 6.80463 95.5177 7.36657 95.499C7.71229 95.4883 8.01261 95.3053 8.18881 95.0341Z" fill="#B1E2FF"/>
</g>
<g opacity="0.3">
<path opacity="0.3" d="M21.2165 123.27C21.4848 122.857 21.4207 122.299 21.0443 121.958C20.6545 121.605 20.2648 121.238 19.8884 120.868C19.4866 120.473 18.8406 120.479 18.4468 120.881C18.0504 121.285 18.0584 121.93 18.4601 122.324C18.8579 122.714 19.2664 123.1 19.6775 123.471C20.0953 123.849 20.74 123.817 21.1177 123.399C21.1551 123.358 21.1871 123.315 21.2165 123.27Z" fill="#B1E2FF"/>
<path opacity="0.3" d="M80.0021 117.16C79.6724 117.617 79.0357 117.72 78.5792 117.39C78.1227 117.06 78.0199 116.424 78.3496 115.966C78.977 115.097 79.5776 114.187 80.1409 113.252C80.4292 112.771 81.0579 112.615 81.5398 112.905C82.0217 113.196 82.1765 113.822 81.8868 114.304C81.6426 114.709 81.393 115.109 81.1367 115.503C80.7709 116.065 80.3892 116.622 80.0021 117.16ZM83.0855 109.894C82.5689 109.671 82.33 109.071 82.5529 108.554C82.98 107.56 83.3711 106.539 83.7128 105.517C83.8904 104.983 84.4697 104.694 85.0036 104.873C85.5375 105.052 85.8245 105.63 85.647 106.165C85.2866 107.241 84.8754 108.318 84.4256 109.362C84.4029 109.417 84.3749 109.468 84.3442 109.516C84.0772 109.923 83.5487 110.093 83.0855 109.894ZM76.4489 121.433C75.6654 122.253 74.8365 123.052 73.9835 123.807C73.5617 124.179 72.917 124.141 72.5446 123.719C72.1722 123.297 72.2123 122.653 72.6341 122.279C73.4443 121.563 74.2305 120.805 74.9739 120.025C75.3624 119.618 76.0084 119.603 76.4155 119.992C76.7759 120.337 76.828 120.882 76.5663 121.285C76.533 121.337 76.4943 121.386 76.4489 121.433ZM85.8552 101.595C85.3026 101.491 84.9368 100.958 85.041 100.405C85.2398 99.3431 85.396 98.2612 85.5055 97.1873C85.5615 96.6263 86.0621 96.2189 86.6227 96.275C87.1833 96.3311 87.5904 96.832 87.5344 97.393C87.4196 98.523 87.2554 99.6637 87.0458 100.782C87.0205 100.917 86.9697 101.041 86.899 101.149C86.6801 101.484 86.273 101.674 85.8552 101.595ZM69.5827 127.19C68.639 127.818 67.6553 128.414 66.6582 128.963C66.1643 129.234 65.545 129.053 65.274 128.561C65.003 128.066 65.1832 127.447 65.6758 127.175C66.6221 126.654 67.5578 126.088 68.4535 125.492C68.922 125.181 69.5547 125.308 69.867 125.777C70.0993 126.127 70.0873 126.568 69.8724 126.898C69.8003 127.011 69.7015 127.111 69.5827 127.19ZM61.6207 131.301C60.5595 131.709 59.469 132.076 58.3798 132.393C57.8392 132.55 57.2733 132.239 57.1157 131.698C56.9582 131.156 57.2692 130.591 57.8098 130.435C58.8456 130.133 59.8814 129.784 60.8892 129.398C61.4151 129.196 62.0051 129.459 62.2066 129.986C62.3281 130.302 62.2814 130.643 62.1092 130.907C61.9971 131.08 61.8289 131.221 61.6207 131.301ZM52.9525 133.578C51.8273 133.744 50.6834 133.865 49.5515 133.937C48.9895 133.973 48.505 133.545 48.4689 132.983C48.4329 132.421 48.86 131.936 49.422 131.901C50.4978 131.833 51.5844 131.718 52.6535 131.561C53.2101 131.478 53.7294 131.864 53.8108 132.421C53.8482 132.677 53.7881 132.924 53.6573 133.126C53.5051 133.361 53.2542 133.533 52.9525 133.578ZM43.9947 133.909C42.8615 133.825 41.7176 133.692 40.5963 133.513C40.0411 133.425 39.662 132.902 39.7501 132.345C39.8382 131.789 40.3614 131.41 40.918 131.498C41.9819 131.667 43.0684 131.794 44.1456 131.873C44.7075 131.915 45.128 132.403 45.0866 132.966C45.0732 133.143 45.0158 133.306 44.9251 133.445C44.7289 133.747 44.3791 133.937 43.9947 133.909ZM35.1784 132.259C34.0932 131.928 33.008 131.547 31.9536 131.124C31.4303 130.914 31.1767 130.321 31.3849 129.797C31.5932 129.277 32.1871 129.02 32.709 129.228C33.7115 129.629 34.7419 129.992 35.7724 130.306C36.3103 130.471 36.6146 131.041 36.4505 131.579C36.4224 131.673 36.3811 131.76 36.3303 131.838C36.0901 132.212 35.6229 132.395 35.1784 132.259ZM26.9481 128.718C26.2206 128.305 25.4972 127.866 24.7977 127.412C24.5441 127.248 24.2932 127.081 24.0449 126.911C23.5804 126.594 23.4469 125.959 23.7766 125.494C24.093 125.028 24.727 124.907 25.1928 125.225C25.4291 125.386 25.668 125.546 25.9083 125.702C26.573 126.135 27.2604 126.553 27.9518 126.944C28.4417 127.222 28.6139 127.845 28.3363 128.335C28.3256 128.354 28.3149 128.371 28.3029 128.388C28.0132 128.836 27.4193 128.985 26.9481 128.718Z" fill="#B1E2FF"/>
<path opacity="0.3" d="M87.5476 92.4014C87.6584 92.2317 87.7185 92.0274 87.7118 91.8096C87.6918 91.258 87.6598 90.6957 87.6157 90.14C87.5717 89.5777 87.0818 89.1583 86.5199 89.2023C85.9579 89.2464 85.5388 89.7366 85.5829 90.2989C85.6242 90.8279 85.6549 91.3608 85.6736 91.8858C85.6937 92.4481 86.1662 92.8889 86.7294 92.8675C87.0751 92.8528 87.3728 92.6698 87.5476 92.4014Z" fill="#B1E2FF"/>
</g>
<path d="M74.7617 80.4802C74.699 80.2865 74.5215 80.1529 74.3186 80.1489L68.5216 80.022C67.1294 77.6979 65.3554 75.5794 63.2344 73.7709L64.062 68.0313C64.0914 67.8296 63.9886 67.6319 63.8084 67.5398L57.6243 64.3541C57.4441 64.2606 57.2239 64.2926 57.077 64.4329L52.8898 68.4427C50.1868 67.7655 47.4332 67.5531 44.7342 67.7695L41.2611 63.1226C41.1396 62.9596 40.9274 62.8915 40.7338 62.9543L34.1106 65.078C33.917 65.1395 33.7836 65.3185 33.7796 65.5215L33.6528 71.3225C31.3302 72.7157 29.2132 74.4908 27.4059 76.6133L21.6703 75.7851C21.4688 75.7557 21.2712 75.8573 21.1791 76.0389L17.9956 82.2273C17.9022 82.4076 17.9342 82.628 18.0757 82.7749L22.0828 86.9651C21.406 89.6699 21.1938 92.4255 21.41 95.1263L16.7663 98.6018C16.6034 98.7234 16.5354 98.9357 16.5981 99.1294L18.7204 105.757C18.7818 105.951 18.9607 106.084 19.1636 106.088L24.9606 106.215C26.3528 108.54 28.1267 110.658 30.2477 112.467L29.4201 118.206C29.3908 118.408 29.4922 118.605 29.6737 118.698L35.8578 121.883C36.038 121.977 36.2583 121.945 36.4051 121.803L40.5923 117.793C43.2953 118.471 46.049 118.683 48.7479 118.467L52.2211 123.113C52.3425 123.276 52.5548 123.345 52.7483 123.282L59.3716 121.158C59.5651 121.097 59.6986 120.918 59.7026 120.715L59.8294 114.914C62.1519 113.52 64.2689 111.745 66.0762 109.623L71.8118 110.451C72.0134 110.48 72.2109 110.377 72.303 110.197L75.4865 104.009C75.5799 103.828 75.5479 103.608 75.4064 103.461L71.3994 99.271C72.0761 96.5662 72.2883 93.8106 72.0721 91.1098L76.7159 87.6343C76.8787 87.5127 76.9468 87.3003 76.884 87.1066L74.7617 80.4802Z" fill="#B1E2FF"/>
<path d="M51.9835 97.7469C49.434 100.64 45.0079 100.919 42.1154 98.368C40.7138 97.1325 39.8783 95.4241 39.7608 93.5594C39.6433 91.6948 40.2587 89.8956 41.4947 88.4931C44.0441 85.5999 48.4703 85.3208 51.3628 87.872C53.9937 90.1934 54.4609 94.0683 52.6042 96.9281C52.4213 97.2113 52.2144 97.4851 51.9835 97.7469ZM41.3892 93.4566C41.4787 94.8871 42.1207 96.1961 43.1939 97.1432C45.411 99.0986 48.8054 98.8849 50.7595 96.6663C52.715 94.4477 52.5001 91.051 50.283 89.0955C48.0659 87.14 44.6715 87.3537 42.7174 89.5723C42.5398 89.774 42.3797 89.9851 42.2368 90.2055C41.6148 91.1645 41.3172 92.2932 41.3892 93.4566Z" fill="#BDD0FB"/>
<path d="M60.9946 102.554C61.3136 102.063 61.6099 101.552 61.8809 101.025C61.9663 100.859 62.0491 100.691 62.1291 100.523C62.5242 99.6904 62.8526 98.8275 63.1089 97.9473C63.1129 97.9353 63.1156 97.9233 63.1196 97.9112C63.1289 97.8778 63.1396 97.8431 63.1489 97.8084C63.1676 97.7416 63.1863 97.6748 63.2037 97.6094C63.2504 97.4344 63.177 97.2554 63.0328 97.1606C62.9981 97.1378 62.9581 97.1205 62.9153 97.1085C62.6978 97.0497 62.4749 97.1793 62.4161 97.397C62.1145 98.5163 61.6913 99.6116 61.1561 100.651C58.5012 105.815 53.4663 108.968 48.0778 109.468C45.0798 109.746 41.9724 109.201 39.1026 107.723C38.5994 107.464 38.1122 107.181 37.645 106.877C34.4949 104.828 32.1644 101.782 31.0018 98.153C29.667 93.9842 30.034 89.5457 32.0362 85.6534C36.1714 77.6164 46.0622 74.4467 54.091 78.5821C54.5862 78.8372 55.0668 79.1164 55.5299 79.4183C57.5388 80.7259 59.2407 82.4583 60.506 84.498C60.5394 84.5501 60.5808 84.5928 60.6302 84.6249C60.7583 84.7077 60.9292 84.7157 61.068 84.6289C61.2589 84.51 61.3189 84.2589 61.1988 84.0666C59.8707 81.9254 58.0847 80.1062 55.9744 78.733C55.4872 78.4165 54.984 78.124 54.4648 77.8555C46.0355 73.5144 35.6482 76.847 31.3114 85.2794C29.2105 89.3653 28.8247 94.0256 30.2262 98.4014C31.4462 102.211 33.8929 105.409 37.2005 107.56C37.6917 107.88 38.203 108.176 38.7302 108.449C42.8133 110.551 47.4704 110.937 51.8432 109.535C55.6487 108.315 58.8442 105.865 60.9946 102.554Z" fill="#BDD0FB"/>
<g opacity="0.3">
<path opacity="0.3" d="M114.374 48.435C114.522 48.2066 114.51 47.8994 114.324 47.6817C113.975 47.2756 113.611 46.8749 113.238 46.4902C112.997 46.2404 112.599 46.2338 112.348 46.4755C112.097 46.7173 112.092 47.1167 112.333 47.3664C112.688 47.7324 113.036 48.1158 113.368 48.5031C113.593 48.7676 113.991 48.797 114.256 48.5713C114.304 48.5299 114.342 48.4844 114.374 48.435Z" fill="#B1E2FF"/>
<path opacity="0.3" d="M110.858 45.1145C110.64 45.3856 110.244 45.4284 109.974 45.2093C109.29 44.659 108.571 44.1367 107.834 43.6586C107.679 43.557 107.521 43.4582 107.364 43.3594C107.069 43.1764 106.978 42.7877 107.161 42.4925C107.345 42.22 107.732 42.1065 108.029 42.2894C108.194 42.3923 108.358 42.4965 108.521 42.602C109.293 43.1029 110.047 43.6505 110.764 44.2289C111.017 44.4333 111.071 44.7939 110.897 45.0624C110.885 45.0798 110.872 45.0971 110.858 45.1145ZM104.549 41.842C103.584 41.3945 102.581 41.0031 101.571 40.6786C101.24 40.5717 101.057 40.2177 101.164 39.8865C101.269 39.5566 101.624 39.3722 101.955 39.4791C103.014 39.8184 104.064 40.2284 105.077 40.6986C105.392 40.8442 105.53 41.2195 105.384 41.5348C105.371 41.5628 105.356 41.5895 105.34 41.6136C105.174 41.8727 104.837 41.9742 104.549 41.842ZM98.4716 39.8932C97.4278 39.6968 96.3599 39.5646 95.2988 39.4978C94.9517 39.4764 94.6875 39.1772 94.7088 38.8299C94.7302 38.4813 95.0278 38.2182 95.3762 38.2396C96.4894 38.3077 97.6093 38.4479 98.7038 38.6536C99.0456 38.7177 99.2711 39.0477 99.2071 39.3896C99.191 39.4724 99.1603 39.5499 99.1163 39.6167C98.9815 39.8251 98.7292 39.9413 98.4716 39.8932ZM92.1006 39.4991C91.0381 39.5646 89.9703 39.6982 88.9278 39.8932C88.5861 39.9573 88.2564 39.7315 88.1923 39.3896C88.1283 39.049 88.3525 38.7191 88.6942 38.6536C89.7874 38.4479 90.9073 38.309 92.0205 38.2409C92.3676 38.2195 92.6666 38.484 92.6879 38.8313C92.6959 38.9715 92.6586 39.1038 92.5878 39.2133C92.485 39.3749 92.3075 39.4871 92.1006 39.4991ZM85.8271 40.6732C84.814 40.9951 83.8102 41.3838 82.8452 41.826C82.5301 41.9715 82.1551 41.8326 82.0109 41.5161C81.8654 41.1995 82.0042 40.8255 82.3206 40.6812C83.3324 40.2164 84.3828 39.8104 85.4453 39.4724C85.7764 39.3669 86.1314 39.5512 86.2355 39.8825C86.2956 40.0695 86.2622 40.2645 86.1635 40.4168C86.0874 40.5343 85.9712 40.6278 85.8271 40.6732ZM80.0287 43.3366C79.1251 43.895 78.2481 44.5161 77.4206 45.1813C77.1496 45.399 76.7532 45.3562 76.5356 45.0851C76.318 44.8139 76.3607 44.4186 76.6317 44.1995C77.498 43.5023 78.419 42.8504 79.3667 42.2654C79.663 42.0824 80.0501 42.1746 80.233 42.4698C80.3651 42.6835 80.3531 42.9466 80.225 43.1443C80.1769 43.2191 80.1102 43.2859 80.0287 43.3366ZM75.058 47.3358C74.3212 48.0971 73.6217 48.9146 72.981 49.7668C72.7715 50.0446 72.3764 50.0994 72.0987 49.891C71.8211 49.6813 71.769 49.2899 71.9746 49.0081C72.6473 48.1158 73.3801 47.2583 74.153 46.4595C74.3946 46.2098 74.7937 46.2031 75.0433 46.4449C75.2635 46.6572 75.2942 46.9925 75.1327 47.2396C75.1127 47.273 75.0873 47.3051 75.058 47.3358ZM68.9686 55.6346C68.6483 55.4983 68.4988 55.1297 68.6349 54.8091C69.01 53.9222 69.4398 53.0406 69.9123 52.1911C69.9831 52.0615 70.0565 51.9333 70.1299 51.8064C70.2941 51.5019 70.6892 51.4017 70.9909 51.5767C71.2925 51.7503 71.394 52.1363 71.2204 52.4382C71.151 52.5571 71.083 52.6786 71.0149 52.8015C70.5637 53.615 70.1526 54.4551 69.7949 55.302C69.7802 55.3367 69.7628 55.3701 69.7428 55.4008C69.5773 55.6493 69.253 55.7561 68.9686 55.6346Z" fill="#B1E2FF"/>
</g>
<g opacity="0.3">
<path opacity="0.3" d="M116.275 80.5496C115.665 81.4619 114.994 82.3461 114.281 83.1756C114.054 83.4388 113.656 83.4695 113.393 83.2424C113.129 83.0153 113.103 82.6173 113.326 82.3542C114.007 81.5634 114.646 80.7206 115.228 79.8497C115.422 79.5598 115.813 79.4824 116.101 79.6761C116.388 79.8684 116.467 80.2544 116.28 80.5429C116.278 80.5443 116.276 80.5469 116.275 80.5496ZM117.093 77.977C116.783 77.8194 116.659 77.4401 116.817 77.1302C117.289 76.1965 117.711 75.2255 118.069 74.2424C118.188 73.9178 118.549 73.7468 118.876 73.8657C119.203 73.9846 119.372 74.3452 119.253 74.6725C118.878 75.7023 118.437 76.7215 117.941 77.6992C117.93 77.7192 117.919 77.7393 117.906 77.758C117.733 78.0264 117.383 78.1253 117.093 77.977ZM111.981 85.5425C111.168 86.2812 110.304 86.9771 109.411 87.6089C109.127 87.8106 108.735 87.7424 108.533 87.4593C108.332 87.1748 108.4 86.7834 108.683 86.5804C109.534 85.9766 110.359 85.3141 111.135 84.6088C111.392 84.3751 111.79 84.3938 112.024 84.6516C112.22 84.868 112.238 85.1845 112.086 85.4183C112.057 85.4637 112.022 85.5051 111.981 85.5425ZM119.433 71.981C119.094 71.9035 118.883 71.5643 118.961 71.225C119.195 70.2045 119.369 69.1613 119.478 68.1208C119.514 67.7748 119.825 67.5237 120.17 67.5598C120.516 67.5958 120.766 67.9057 120.73 68.2517C120.617 69.343 120.434 70.4382 120.187 71.5082C120.17 71.5816 120.14 71.6497 120.102 71.7098C119.962 71.9262 119.697 72.0411 119.433 71.981ZM106.611 89.3466C105.647 89.8676 104.641 90.3337 103.62 90.7344C103.295 90.8613 102.931 90.701 102.804 90.3778C102.677 90.0532 102.836 89.6886 103.161 89.5617C104.134 89.181 105.093 88.7349 106.013 88.238C106.319 88.0724 106.7 88.1872 106.866 88.4944C106.979 88.7042 106.961 88.9499 106.839 89.1369C106.785 89.2211 106.707 89.2945 106.611 89.3466ZM100.486 91.7509C99.4231 92.0261 98.334 92.2385 97.2501 92.3827C96.9057 92.4281 96.5894 92.1864 96.544 91.8417C96.4973 91.4971 96.7402 91.1806 97.0846 91.1338C98.1191 90.9962 99.1575 90.7932 100.172 90.5314C100.508 90.4446 100.853 90.6476 100.939 90.9842C100.985 91.1619 100.95 91.3422 100.858 91.4851C100.773 91.612 100.643 91.7108 100.486 91.7509ZM93.9585 92.6191C92.86 92.6311 91.7521 92.5764 90.6642 92.4548C90.3185 92.4161 90.0689 92.1049 90.1076 91.7589C90.1463 91.413 90.4573 91.1645 90.8031 91.2019C91.8402 91.3181 92.8973 91.3702 93.9438 91.3582C94.2922 91.3542 94.5765 91.6334 94.5805 91.982C94.5819 92.1116 94.5445 92.2318 94.4791 92.332C94.3696 92.5029 94.1774 92.6165 93.9585 92.6191Z" fill="#B1E2FF"/>
<path opacity="0.3" d="M120.772 65.2797C120.839 65.1782 120.876 65.0553 120.873 64.9257C120.864 64.3861 120.837 63.8451 120.796 63.3162C120.769 62.9689 120.466 62.7098 120.119 62.7365C119.774 62.7646 119.515 63.0664 119.54 63.4137C119.579 63.9173 119.604 64.4342 119.613 64.9484C119.62 65.2957 119.907 65.5736 120.254 65.5669C120.473 65.5615 120.663 65.4493 120.772 65.2797Z" fill="#B1E2FF"/>
</g>
<path d="M112.247 56.8487C112.205 56.7191 112.086 56.6297 111.95 56.627L108.071 56.5415C107.14 54.9867 105.953 53.5682 104.533 52.3594L105.087 48.5192C105.107 48.3843 105.037 48.252 104.917 48.1906L100.779 46.0588C100.658 45.996 100.511 46.0174 100.414 46.1122L97.612 48.7957C95.8034 48.3429 93.96 48.2 92.154 48.3455L89.8302 45.236C89.7487 45.1265 89.6072 45.0824 89.4778 45.1238L85.0449 46.545C84.9154 46.5864 84.826 46.7053 84.8233 46.8415L84.7379 50.7231C83.1842 51.6554 81.7667 52.8429 80.5587 54.2641L76.7212 53.7098C76.5863 53.6897 76.4542 53.7579 76.3928 53.8794L74.2625 58.0201C74.1997 58.1417 74.2211 58.2886 74.3159 58.3861L76.9975 61.1898C76.545 62.9997 76.4021 64.8443 76.5476 66.6515L73.4402 68.977C73.3308 69.0585 73.2854 69.2001 73.3281 69.3296L74.7483 73.7655C74.7897 73.8951 74.9085 73.9846 75.0447 73.9873L78.9236 74.0728C79.8552 75.6275 81.0419 77.0461 82.4621 78.2549L81.9082 82.0951C81.8881 82.23 81.9562 82.3622 82.0777 82.4237L86.2155 84.5555C86.337 84.6182 86.4838 84.5969 86.5813 84.502L89.383 81.8186C91.1916 82.2714 93.035 82.4143 94.841 82.2687L97.1648 85.3783C97.2463 85.4878 97.3878 85.5319 97.5172 85.4905L101.95 84.0693C102.08 84.0279 102.169 83.909 102.172 83.7727L102.257 79.8911C103.811 78.9588 105.228 77.7714 106.436 76.3502L110.274 76.9045C110.409 76.9245 110.541 76.8551 110.602 76.7348L112.733 72.5941C112.795 72.4726 112.774 72.3256 112.679 72.2281L109.998 69.4245C110.45 67.6146 110.593 65.77 110.447 63.9627L113.555 61.6372C113.664 61.5558 113.708 61.4142 113.667 61.2846L112.247 56.8487Z" fill="#B1E2FF"/>
<path d="M97.0688 68.4574C96.2279 69.4125 95.0653 69.9828 93.7946 70.0629C92.5252 70.1431 91.3012 69.7237 90.3468 68.8808C88.3766 67.1431 88.1884 64.131 89.9237 62.1542C91.6616 60.184 94.6755 59.9943 96.6457 61.7307C97.6001 62.5722 98.17 63.7356 98.2501 65.0059C98.3155 66.0384 98.0499 67.0415 97.4959 67.8937C97.3678 68.0901 97.225 68.2784 97.0688 68.4574ZM91.1784 67.9351C91.8805 68.5549 92.7815 68.8635 93.7158 68.8047C94.6488 68.7459 95.5044 68.3265 96.1238 67.6239C96.7418 66.9213 97.0515 66.0197 96.9927 65.0847C96.934 64.1511 96.5149 63.2949 95.8128 62.6751C94.3645 61.3968 92.1461 61.5357 90.8687 62.9863C90.7539 63.1172 90.6498 63.2548 90.5577 63.3964C89.626 64.8296 89.8609 66.7731 91.1784 67.9351Z" fill="#BDD0FB"/>
<path d="M103.34 71.8034C103.557 71.4694 103.759 71.1208 103.944 70.7588C104.314 70.0402 104.61 69.2842 104.828 68.5081C104.837 68.4734 104.847 68.4387 104.856 68.404C104.929 68.1341 104.815 67.8576 104.592 67.7121C104.537 67.6773 104.477 67.6493 104.411 67.6319C104.075 67.5411 103.732 67.7414 103.64 68.0767C103.445 68.8033 103.17 69.5113 102.824 70.1831C102.806 70.2205 102.786 70.2566 102.767 70.2927C101.934 71.8741 100.739 73.1871 99.2912 74.1529C98.505 74.6765 97.644 75.0972 96.7244 75.4018C96.7164 75.4044 96.7097 75.4071 96.7017 75.4098C96.679 75.4165 96.6563 75.4245 96.6336 75.4325C93.9373 76.2967 91.0648 76.0589 88.5474 74.762C88.2217 74.595 87.9067 74.412 87.6037 74.2143C85.5642 72.8879 84.0559 70.9164 83.303 68.5669C82.4394 65.8688 82.677 62.9943 83.9731 60.4752C85.2692 57.9573 87.4676 56.0913 90.1639 55.2271C92.8601 54.3629 95.7326 54.6007 98.25 55.8977C98.5704 56.062 98.8814 56.2436 99.1817 56.4386C100.483 57.2855 101.584 58.4061 102.403 59.7272C102.453 59.8086 102.519 59.8741 102.595 59.9235C102.792 60.0517 103.055 60.0638 103.27 59.9302C103.565 59.7459 103.657 59.3585 103.473 59.062C102.557 57.5847 101.324 56.3291 99.8691 55.3821C99.5328 55.163 99.1857 54.9613 98.8267 54.777C96.0089 53.3264 92.7961 53.0606 89.7794 54.0277C86.7628 54.9947 84.3015 57.0771 82.8532 59.8995C81.4036 62.7178 81.1367 65.9329 82.1044 68.9529C82.9453 71.5816 84.6338 73.7869 86.915 75.2709C87.254 75.4913 87.6064 75.6956 87.9708 75.884C93.4261 78.689 100.067 76.843 103.34 71.8034Z" fill="#BDD0FB"/>
<path d="M241.888 114.574L223.579 133.316L245.542 127.445L241.888 114.574Z" fill="#B1E2FF"/>
<path d="M350.834 122.332L246.798 127.385C244.125 127.515 241.888 125.382 241.888 122.705V79.8738C241.888 75.2188 245.583 71.4053 250.233 71.2611L343.997 68.3572C350.98 68.3572 356.641 74.022 356.641 81.0091V116.233C356.639 119.49 354.084 122.173 350.834 122.332Z" fill="#B1E2FF"/>
<path opacity="0.85" d="M249.909 125.665C248.251 125.665 246.688 125.04 245.479 123.886C244.194 122.659 243.486 121.004 243.486 119.227V80.6245C243.486 76.0751 247.132 72.4019 251.785 72.2603L342.569 69.5167C349.45 69.5167 355.043 74.9811 355.043 81.6958V114.978C355.043 118.181 352.479 120.811 349.206 120.966L250.223 125.657C250.119 125.662 250.013 125.665 249.909 125.665ZM342.576 69.9682L251.798 72.7117C247.39 72.8453 243.937 76.3208 243.937 80.6245V119.227C243.937 120.879 244.595 122.418 245.79 123.558C246.985 124.699 248.55 125.285 250.202 125.205L349.185 120.514C352.216 120.371 354.592 117.939 354.592 114.978V81.6971C354.591 75.2296 349.201 69.9682 342.576 69.9682Z" fill="white"/>
<path d="M342.272 77.7781L259.083 80.8943C258.266 80.925 257.623 81.4673 257.651 82.1018L257.682 82.8338C257.708 83.4615 258.382 83.9451 259.19 83.9157L342.382 80.8756C343.201 80.8462 343.844 80.3039 343.817 79.6681L343.783 78.8613C343.756 78.2295 343.08 77.7473 342.272 77.7781Z" fill="url(#paint4_linear)"/>
<path d="M334.827 98.8529L251.638 101.953C250.821 101.984 250.179 102.543 250.207 103.201L250.239 103.958C250.267 104.609 250.941 105.109 251.75 105.08L334.942 102.059C335.76 102.029 336.404 101.468 336.374 100.81L336.338 99.9736C336.312 99.3231 335.636 98.8222 334.827 98.8529Z" fill="url(#paint5_linear)"/>
<path d="M344.546 107.669L251.807 111.172C250.897 111.207 250.177 111.776 250.207 112.44L250.24 113.205C250.268 113.862 251.017 114.365 251.919 114.333L344.661 110.908C345.572 110.874 346.292 110.305 346.264 109.64L346.228 108.796C346.198 108.137 345.448 107.635 344.546 107.669Z" fill="url(#paint6_linear)"/>
<path d="M296.662 90.2029L251.32 91.5252C250.874 91.5386 250.542 92.1503 250.578 92.8876L250.619 93.7385C250.655 94.4691 251.04 95.0475 251.48 95.0355L296.826 93.8013C297.272 93.7893 297.605 93.1775 297.568 92.4389L297.521 91.4998C297.488 90.7692 297.102 90.1895 296.662 90.2029Z" fill="url(#paint7_linear)"/>
<path d="M346.622 88.6348L303.765 89.8636C303.345 89.8757 303.031 90.4861 303.069 91.2247L303.111 92.0756C303.147 92.8062 303.513 93.3859 303.93 93.3753L346.791 92.2332C347.213 92.2225 347.525 91.6108 347.489 90.8721L347.443 89.9331C347.404 89.2024 347.038 88.6227 346.622 88.6348Z" fill="url(#paint8_linear)"/>
<path d="M83.9208 358.565C83.9208 358.565 83.0639 363.423 82.6434 368.232C82.4793 370.111 83.9275 371.744 85.8109 371.822C92.2099 372.09 105.9 372.608 110.812 372.389C111.55 372.355 112.033 371.599 111.759 370.911C111.53 370.336 111.088 369.87 110.526 369.61L87.9145 359.211L83.9208 358.565Z" fill="url(#paint9_linear)"/>
<path d="M83.2174 355.711L83.9062 361.521C83.9062 361.521 87.8665 363.366 90.5721 361.289L88.9317 354.813L83.2174 355.711Z" fill="url(#paint10_linear)"/>
<path d="M83.7353 246.465C83.4377 247.983 82.1376 322.191 90.0649 355.446C90.1944 355.989 89.9194 356.548 89.4029 356.759C88.1869 357.256 85.8043 357.976 82.9478 358.072C82.0628 358.102 81.27 357.527 81.0204 356.677C78.7539 348.962 67.8967 310.303 66.4805 273.375C64.8974 232.11 66.4805 271.97 66.4805 271.97L67.4082 246.463L83.7353 246.465Z" fill="url(#paint11_linear)"/>
<path d="M57.9098 361.099C57.9098 361.099 56.5443 363.552 55.2228 370.068C54.9839 371.245 55.8061 372.371 57.0008 372.489C59.1137 372.697 62.3666 372.964 64.9735 372.946C66.1748 372.938 67.1118 371.89 66.9677 370.698C66.6793 368.319 65.7797 364.416 63.002 361.374L57.9098 361.099Z" fill="url(#paint12_linear)"/>
<path d="M56.7099 353.626L58.3197 362.414C58.3197 362.414 59.9121 363.598 63.0609 362.739L62.292 353.285L56.7099 353.626Z" fill="url(#paint13_linear)"/>
<path d="M52.3612 248.743C45.8781 287.895 53.768 345.511 56.4283 356.789C56.5911 357.479 57.1477 358.008 57.8472 358.124C59.0351 358.321 60.9906 358.482 62.918 357.921C63.5828 357.728 64.0486 357.129 64.0753 356.437C64.4317 347.32 63.7897 291.351 69.8309 269.231C70.1366 268.111 70.8213 267.133 71.7677 266.46L83.4925 258.118L84.3908 244.635L52.3612 248.743Z" fill="url(#paint14_linear)"/>
<path d="M93.6716 174.556C74.2437 174.235 52.8055 179.661 52.8055 179.661C47.0139 213.476 51.7924 252.479 51.7924 252.479C66.8329 256.426 83.8008 250.065 83.8008 250.065C86.3008 235.931 97.9643 196.154 97.9643 196.154C107.457 194.975 115.277 192.235 121.717 188.612C116.805 182.914 114.489 175.663 113.484 171.378C106.615 173.514 99.6635 174.655 93.6716 174.556Z" fill="url(#paint15_linear)"/>
<path d="M151.06 145.918C149.151 143.611 146.735 144.703 146.735 144.703C143.876 156.788 128.885 166.587 113.484 171.377C114.49 175.663 116.805 182.914 121.717 188.61C147.278 174.23 151.06 145.918 151.06 145.918Z" fill="url(#paint16_linear)"/>
<path d="M150.596 146.505C150.797 147.14 148.483 148.107 147.122 145.509C147.074 144.265 146.317 138.93 147.061 137.915C151.021 132.512 158.699 125.738 158.699 125.738C159.996 127.019 158.927 128.279 158.927 128.279L155.201 132.162C155.981 133.571 156.931 134.76 157.376 136.464C157.714 137.754 157.507 139.134 156.855 140.308C156.201 141.486 155.31 143.02 154.466 144.218C152.872 146.489 150.596 146.505 150.596 146.505Z" fill="url(#paint17_linear)"/>
<path d="M153.574 134.681L150.18 137.561L149.115 140.427L152.141 143.786C152.141 143.786 153.158 138.098 153.915 136.867C154.672 135.637 154.279 135.041 153.574 134.681Z" fill="url(#paint18_linear)"/>
<path d="M60.2576 198.485L52.8055 179.66C52.8055 179.66 34.6576 191.999 31.6743 207.643C35.1034 207.895 41.3423 208.788 47.4503 211.874C48.7917 204.488 60.2576 198.485 60.2576 198.485Z" fill="url(#paint19_linear)"/>
<path d="M76.1164 216.2C76.1164 216.2 55.7421 227.723 48.8666 217.884C47.4397 215.84 47.098 213.81 47.449 211.874C41.341 208.789 35.1022 207.895 31.6731 207.643C30.7734 212.359 31.2486 217.375 34.0183 222.445C46.0608 244.489 78.8113 221.227 78.8113 221.227L76.1164 216.2Z" fill="url(#paint20_linear)"/>
<path d="M73.6683 230.778L84.7885 191.918C84.9153 191.477 85.2904 191.155 85.7469 191.101C87.7611 190.866 93.5995 190.207 100.34 189.635C108.46 188.947 117.887 188.391 123.522 188.864C124.322 188.931 124.807 189.779 124.451 190.5C121.247 196.987 108.067 223.372 101.468 232.016C101.249 232.302 100.911 232.47 100.551 232.466L74.7509 232.225C73.9994 232.22 73.4615 231.5 73.6683 230.778Z" fill="#B1E2FF"/>
<path d="M101.492 186.266L109.554 184.922C109.984 184.85 110.335 185.262 110.199 185.674L109.401 188.095C109.331 188.306 109.147 188.458 108.928 188.487L101.171 189.524C100.769 189.577 100.438 189.213 100.531 188.819L101.025 186.706C101.077 186.479 101.263 186.305 101.492 186.266Z" fill="#BDD0FB"/>
<path d="M95.4563 193.097L96.121 189.635C96.1878 189.288 96.4748 189.026 96.8258 188.99L113.109 187.336C113.658 187.28 114.095 187.784 113.967 188.319L112.931 192.634C112.849 192.978 112.548 193.228 112.195 193.245L96.2825 194.047C95.7633 194.073 95.3589 193.606 95.4563 193.097Z" fill="#BDD0FB"/>
<path d="M76.3552 221.389C76.3552 221.389 74.8069 215.015 75.4316 212.753C76.0562 210.492 77.2669 207.584 81.302 208.231C85.337 208.877 90.0969 210.578 90.0969 210.578C90.0969 210.578 89.8567 213.523 86.7893 212.573L88.6914 214.045C88.6914 214.045 88.4191 216.404 85.8296 215.143L87.5982 217.096C87.5982 217.096 86.4863 219.033 84.5802 217.79C82.6741 216.549 81.7598 222.157 76.3552 221.389Z" fill="url(#paint21_linear)"/>
<path d="M73.9927 158.772L67.8112 176.661C67.7084 176.958 67.8299 177.286 68.1049 177.437C69.7894 178.37 75.8614 181.065 83.1774 176.422C83.9395 175.939 84.4588 175.15 84.5735 174.254L86.5757 158.771H73.9927V158.772Z" fill="url(#paint22_linear)"/>
<path d="M87.4435 142.205C87.4435 142.205 94.2323 154.992 93.362 160.157C92.4917 165.322 84.0785 164.951 76.7318 160.757L71.5982 146.949L87.4435 142.205Z" fill="url(#paint23_linear)"/>
<path d="M77.0561 153.977C77.3551 153.844 77.4645 153.478 77.2856 153.206C76.741 152.375 75.7226 150.679 75.3969 149.193C75.3969 149.193 74.1769 148.411 78.503 147.375C82.829 146.339 89.2814 144.731 90.6376 141.046C91.9604 137.452 88.4859 128.418 82.9438 135.617C82.7329 135.891 82.3205 135.898 82.1096 135.623C81.2006 134.439 78.8127 131.983 75.4957 133.472C72.3923 134.865 72.0426 137.141 72.0853 138.289C72.0973 138.627 71.7956 138.888 71.4646 138.826C69.8962 138.526 66.1308 138.269 64.3729 142.134C62.9246 145.318 63.8656 147.12 64.7226 148.002C65.0002 148.288 64.8787 148.758 64.4983 148.874C63.4665 149.191 62.1357 150.066 62.2692 152.483C62.4534 155.825 66.1882 155.531 67.2507 155.379C67.4255 155.354 67.6004 155.414 67.7178 155.545C68.6295 156.555 72.7367 160.841 77.1815 161.358C77.5659 161.402 77.8649 161.022 77.7381 160.655L75.8147 155.059C75.7253 154.798 75.8494 154.514 76.1003 154.403L77.0561 153.977Z" fill="url(#paint24_linear)"/>
<path d="M77.829 154.77C77.829 154.77 72.9957 151.452 72.642 154.246C72.2882 157.041 76.9947 158.294 79.3253 157.252L77.829 154.77Z" fill="url(#paint25_linear)"/>
<defs>
<linearGradient id="paint0_linear" x1="653.103" y1="-253.555" x2="-34.7972" y2="332.38" gradientUnits="userSpaceOnUse">
<stop stop-color="#00C9F9"/>
<stop offset="1" stop-color="#00C9F9"/>
</linearGradient>
<linearGradient id="paint1_linear" x1="753.377" y1="-135.833" x2="65.4751" y2="450.104" gradientUnits="userSpaceOnUse">
<stop stop-color="#00C9F9"/>
<stop offset="1" stop-color="#00C9F9"/>
</linearGradient>
<linearGradient id="paint2_linear" x1="11.291" y1="304.631" x2="608.553" y2="-327.408" gradientUnits="userSpaceOnUse">
<stop stop-color="#1973EB"/>
<stop offset="1" stop-color="#1973EB"/>
</linearGradient>
<linearGradient id="paint3_linear" x1="253.987" y1="260.656" x2="118.57" y2="410.189" gradientUnits="userSpaceOnUse">
<stop stop-color="#1973EB"/>
<stop offset="1" stop-color="#1973EB"/>
</linearGradient>
<linearGradient id="paint4_linear" x1="257.649" y1="80.8454" x2="343.818" y2="80.8454" gradientUnits="userSpaceOnUse">
<stop stop-color="#DAE3FE"/>
<stop offset="1" stop-color="#E9EFFD"/>
</linearGradient>
<linearGradient id="paint5_linear" x1="250.206" y1="101.967" x2="336.376" y2="101.967" gradientUnits="userSpaceOnUse">
<stop stop-color="#DAE3FE"/>
<stop offset="1" stop-color="#E9EFFD"/>
</linearGradient>
<linearGradient id="paint6_linear" x1="250.206" y1="111" x2="346.264" y2="111" gradientUnits="userSpaceOnUse">
<stop stop-color="#DAE3FE"/>
<stop offset="1" stop-color="#E9EFFD"/>
</linearGradient>
<linearGradient id="paint7_linear" x1="250.576" y1="92.6194" x2="297.573" y2="92.6194" gradientUnits="userSpaceOnUse">
<stop stop-color="#DAE3FE"/>
<stop offset="1" stop-color="#E9EFFD"/>
</linearGradient>
<linearGradient id="paint8_linear" x1="303.065" y1="91.0045" x2="347.49" y2="91.0045" gradientUnits="userSpaceOnUse">
<stop stop-color="#DAE3FE"/>
<stop offset="1" stop-color="#E9EFFD"/>
</linearGradient>
<linearGradient id="paint9_linear" x1="110.095" y1="351.851" x2="27.2287" y2="441.924" gradientUnits="userSpaceOnUse">
<stop stop-color="#1973EB"/>
<stop offset="1" stop-color="#1973EB"/>
</linearGradient>
<linearGradient id="paint10_linear" x1="83.218" y1="358.545" x2="90.573" y2="358.545" gradientUnits="userSpaceOnUse">
<stop stop-color="#FEBBBA"/>
<stop offset="1" stop-color="#FF928E"/>
</linearGradient>
<linearGradient id="paint11_linear" x1="116.615" y1="249.924" x2="46.0935" y2="345.441" gradientUnits="userSpaceOnUse">
<stop stop-color="#1973EB"/>
<stop offset="1" stop-color="#1973EB"/>
</linearGradient>
<linearGradient id="paint12_linear" x1="91.5192" y1="334.762" x2="8.65257" y2="424.835" gradientUnits="userSpaceOnUse">
<stop stop-color="#1973EB"/>
<stop offset="1" stop-color="#1973EB"/>
</linearGradient>
<linearGradient id="paint13_linear" x1="56.7105" y1="358.168" x2="63.0609" y2="358.168" gradientUnits="userSpaceOnUse">
<stop stop-color="#FEBBBA"/>
<stop offset="1" stop-color="#FF928E"/>
</linearGradient>
<linearGradient id="paint14_linear" x1="104.058" y1="240.652" x2="33.5363" y2="336.169" gradientUnits="userSpaceOnUse">
<stop stop-color="#1973EB"/>
<stop offset="1" stop-color="#1973EB"/>
</linearGradient>
<linearGradient id="paint15_linear" x1="79.1441" y1="198.131" x2="191.588" y2="4.53616" gradientUnits="userSpaceOnUse">
<stop stop-color="#00A1FF"/>
<stop offset="1" stop-color="#00A1FF"/>
</linearGradient>
<linearGradient id="paint16_linear" x1="145.266" y1="122.718" x2="132.273" y2="159.816" gradientUnits="userSpaceOnUse">
<stop stop-color="#FEBBBA"/>
<stop offset="1" stop-color="#FF928E"/>
</linearGradient>
<linearGradient id="paint17_linear" x1="156.357" y1="126.603" x2="143.364" y2="163.7" gradientUnits="userSpaceOnUse">
<stop stop-color="#FEBBBA"/>
<stop offset="1" stop-color="#FF928E"/>
</linearGradient>
<linearGradient id="paint18_linear" x1="146.388" y1="150.308" x2="156.174" y2="130.581" gradientUnits="userSpaceOnUse">
<stop stop-color="#FEBBBA"/>
<stop offset="1" stop-color="#FF928E"/>
</linearGradient>
<linearGradient id="paint19_linear" x1="55.7794" y1="184.561" x2="168.223" y2="-9.03437" gradientUnits="userSpaceOnUse">
<stop stop-color="#00A1FF"/>
<stop offset="1" stop-color="#00A1FF"/>
</linearGradient>
<linearGradient id="paint20_linear" x1="31.2605" y1="219.79" x2="78.813" y2="219.79" gradientUnits="userSpaceOnUse">
<stop stop-color="#FEBBBA"/>
<stop offset="1" stop-color="#FF928E"/>
</linearGradient>
<linearGradient id="paint21_linear" x1="75.2824" y1="214.801" x2="90.0968" y2="214.801" gradientUnits="userSpaceOnUse">
<stop stop-color="#FEBBBA"/>
<stop offset="1" stop-color="#FF928E"/>
</linearGradient>
<linearGradient id="paint22_linear" x1="67.7742" y1="168.918" x2="86.5748" y2="168.918" gradientUnits="userSpaceOnUse">
<stop stop-color="#FEBBBA"/>
<stop offset="1" stop-color="#FF928E"/>
</linearGradient>
<linearGradient id="paint23_linear" x1="91.0465" y1="156.949" x2="70.3674" y2="144.345" gradientUnits="userSpaceOnUse">
<stop stop-color="#FEBBBA"/>
<stop offset="1" stop-color="#FF928E"/>
</linearGradient>
<linearGradient id="paint24_linear" x1="59.4328" y1="131.033" x2="86.1521" y2="152.122" gradientUnits="userSpaceOnUse">
<stop stop-color="#1973EB"/>
<stop offset="1" stop-color="#1973EB"/>
</linearGradient>
<linearGradient id="paint25_linear" x1="85.6169" y1="161.655" x2="67.0115" y2="150.315" gradientUnits="userSpaceOnUse">
<stop stop-color="#FEBBBA"/>
<stop offset="1" stop-color="#FF928E"/>
</linearGradient>
</defs>
</svg>
